<svg width="67" height="90" xmlns="http://www.w3.org/2000/svg">
  <g fill="none" fill-rule="evenodd">
    <g fill="#139FF0" fill-opacity=".2" fill-rule="nonzero">
      <path d="M37.031 57.324l-7.14 26.568c-.429 1.62-2.54 1.98-3.488.612l-3.561-5.148a1.955 1.955 0 0 0-2.433-.666l-5.655 2.646c-1.503.702-3.149-.684-2.72-2.304l7.14-26.568 17.857 4.86z"/>
      <path d="M37.031 57.324l7.14 26.568c.43 1.62 2.54 1.98 3.489.612l3.56-5.148a1.955 1.955 0 0 1 2.434-.666l5.654 2.646c1.503.702 3.15-.684 2.72-2.304l-7.14-26.568-17.857 4.86z"/>
    </g>
    <g fill="#139FF0" fill-rule="nonzero">
      <path d="M24.245 90c-.93 0-1.79-.45-2.326-1.242l-3.56-5.148a1.065 1.065 0 0 0-1.325-.36l-5.654 2.646a2.841 2.841 0 0 1-3.042-.396 2.832 2.832 0 0 1-.912-2.952l7.139-26.568a.843.843 0 0 1 .412-.54.901.901 0 0 1 .68-.09l17.857 4.86a.84.84 0 0 1 .537.414c.125.198.143.45.09.684L27 87.876a2.786 2.786 0 0 1-2.273 2.07 2.208 2.208 0 0 1-.483.054zm-6.763-8.658c.912 0 1.789.432 2.344 1.242l3.56 5.148c.233.342.644.522 1.056.45.412-.072.734-.36.841-.774l6.907-25.704-16.122-4.392-6.907 25.704c-.107.414.018.828.34 1.098.322.27.752.324 1.128.144l5.654-2.646c.393-.18.805-.27 1.199-.27z"/>
      <path d="M42.317 90c-.16 0-.34-.018-.5-.036a2.861 2.861 0 0 1-2.273-2.07l-7.14-26.568a.916.916 0 0 1 .09-.684.871.871 0 0 1 .537-.414l17.857-4.86a.901.901 0 0 1 .68.09.875.875 0 0 1 .412.54l7.139 26.568a2.876 2.876 0 0 1-.913 2.952 2.806 2.806 0 0 1-3.041.396l-5.655-2.646a1.065 1.065 0 0 0-1.324.36l-3.56 5.148A2.76 2.76 0 0 1 42.317 90zm-7.944-28.296l6.906 25.704c.108.414.43.702.841.774a1.04 1.04 0 0 0 1.056-.45l3.56-5.148a2.829 2.829 0 0 1 3.544-.972l5.654 2.646c.376.18.805.126 1.127-.144.322-.27.448-.684.34-1.098l-6.907-25.704-16.121 4.392z"/>
    </g>
    <path d="M34.784 66.87H31.76c-2.04 0-3.775-1.404-4.276-3.312a4.27 4.27 0 0 1-1.807 1.422 4.326 4.326 0 0 1-3.382.036l-2.791-1.134c-2.22-.9-3.329-3.42-2.506-5.67a4.406 4.406 0 0 1-6.173-.09L8.696 55.98a4.473 4.473 0 0 1-.698-5.382c-1.914.306-3.883-.738-4.688-2.628l-1.18-2.79a4.4 4.4 0 0 1-.037-3.402 4.46 4.46 0 0 1 2.255-2.394C1.968 39.33.036 37.35.036 34.938v-3.042a4.456 4.456 0 0 1 3.292-4.302 4.288 4.288 0 0 1-1.413-1.818 4.4 4.4 0 0 1-.036-3.402l1.127-2.808c.895-2.232 3.4-3.348 5.636-2.52a4.47 4.47 0 0 1 .09-6.21l2.13-2.142a4.406 4.406 0 0 1 5.35-.702c-.287-1.944.75-3.924 2.63-4.734l2.773-1.188c2.2-.954 4.76.054 5.762 2.232C27.412 1.926 29.38 0 31.778 0h3.024c2.04 0 3.776 1.404 4.277 3.312a4.27 4.27 0 0 1 1.807-1.422 4.326 4.326 0 0 1 3.382-.036l2.791 1.134a4.416 4.416 0 0 1 2.416 2.376 4.373 4.373 0 0 1 .071 3.294 4.422 4.422 0 0 1 6.173.072l2.13 2.142a4.473 4.473 0 0 1 .697 5.382 4.558 4.558 0 0 1 2.29.27 4.416 4.416 0 0 1 2.416 2.376l1.181 2.79a4.4 4.4 0 0 1 .036 3.402 4.46 4.46 0 0 1-2.255 2.394c2.38.054 4.313 2.034 4.313 4.446v3.042a4.456 4.456 0 0 1-3.293 4.302c1.575 1.17 2.22 3.312 1.468 5.22l-1.128 2.808c-.894 2.232-3.4 3.348-5.636 2.52a4.47 4.47 0 0 1-.09 6.21L55.72 58.14a4.406 4.406 0 0 1-5.35.702c.286 1.944-.751 3.924-2.63 4.734l-2.774 1.188c-2.2.954-4.76-.054-5.761-2.232-.054 2.394-2.022 4.338-4.42 4.338z" fill="#139FF0"/>
    <ellipse stroke="#139FF0" stroke-width="2" fill="#FFF" cx="33.13" cy="33.213" rx="30.919" ry="31.104"/>
    <ellipse fill-opacity=".2" fill="#139FF0" fill-rule="nonzero" cx="37.031" cy="29.676" rx="19.969" ry="20.088"/>
    <path d="M26.374 15.48a.923.923 0 0 1-.84-.594.889.889 0 0 1 .536-1.152 17.143 17.143 0 0 1 1.629-.522.906.906 0 0 1 1.109.63.913.913 0 0 1-.626 1.116c-.501.144-1.002.306-1.485.486-.108.018-.215.036-.323.036zM15.424 25.326a.88.88 0 0 1-.787-1.296 21.062 21.062 0 0 1 6.906-7.938.869.869 0 0 1 1.235.234.88.88 0 0 1-.233 1.242 19.261 19.261 0 0 0-6.316 7.254.883.883 0 0 1-.805.504zM33.281 54.414c-11.505 0-20.863-9.414-20.863-20.988 0-1.17.09-2.34.286-3.492.09-.486.537-.828 1.038-.738a.9.9 0 0 1 .734 1.044 18.984 18.984 0 0 0-.269 3.186c0 10.584 8.553 19.188 19.074 19.188s19.074-8.604 19.074-19.188-8.553-19.17-19.074-19.17a.889.889 0 0 1-.894-.9c0-.504.393-.9.894-.9 11.506 0 20.864 9.414 20.864 20.988 0 11.556-9.358 20.97-20.864 20.97z" fill="#139FF0" fill-rule="nonzero"/>
  </g>
</svg>
