<svg xmlns="http://www.w3.org/2000/svg" width="235" height="141"><g fill="none" fill-rule="evenodd"><g transform="rotate(180 117.895 70.42)"><ellipse fill="#88CFF8" cx="63.929" cy="3.341" rx="2.707" ry="2.694"/><ellipse fill="#88CFF8" cx="163.429" cy="137.746" rx="2.707" ry="2.694"/><ellipse fill="#88CFF8" cx="20.257" cy="21.141" rx="2.707" ry="2.694"/><ellipse fill="#88CFF8" cx="14.868" cy="119.544" rx="4.061" ry="4.042"/><ellipse fill="#88CFF8" cx="204.343" cy="31.976" rx="2.707" ry="2.694"/><ellipse fill="#88CFF8" opacity=".499" cx="178.625" cy="12.772" rx="4.061" ry="4.042"/><ellipse fill="#88CFF8" cx="231.261" cy="80.506" rx="4.061" ry="4.042"/><g transform="rotate(180 4.701 46.755)" opacity=".3"><g stroke="#139FF0" stroke-linecap="round" stroke-width="2.41"><path d="M7.352 34.788L1.05 41.02M1.05 34.788l6.302 6.231"/></g><ellipse fill="#139FF0" cx="5.601" cy="3.288" rx="2.801" ry="2.769"/></g><g opacity=".3" stroke="#139FF0" stroke-linecap="round" stroke-width="2.41"><path d="M198.273 110.055l-10.503 10.384M187.77 110.055l10.503 10.384"/></g><g opacity=".3" stroke="#139FF0" stroke-linecap="round" stroke-width="2.41"><path d="M190.211 74.324l-4.2 4.154M186.01 74.324l4.201 4.154"/></g><ellipse fill="#139FF0" opacity=".3" cx="186.671" cy="55.838" rx="4.201" ry="4.154"/></g><g fill-rule="nonzero"><g opacity=".5"><path d="M90.413 63.381c0-14.655 9.56-24.552 21.718-25.524a24.846 24.846 0 0 0-1.975-.096c-13.084 0-23.692 10.178-23.692 25.62 0 15.443 14.675 29.665 23.692 29.665.632 0 1.295-.087 1.975-.221-9.03-1.792-21.718-15.082-21.718-29.444z" opacity=".3" fill="#499DE9"/></g><g opacity=".2"><path d="M129.84 63.381c0-14.655-9.56-24.552-21.717-25.524a24.84 24.84 0 0 1 1.974-.096c13.084 0 23.692 10.178 23.692 25.62 0 15.443-14.674 29.665-23.692 29.665-.632 0-1.295-.087-1.974-.221 9.03-1.792 21.718-15.082 21.718-29.444z" opacity=".3" fill="#499DE9"/></g><path d="M137.62 59.618v3.932a73.267 73.267 0 0 1-2.764-1.14c-13.268-5.859-18.954-13.784-18.954-13.784 8.766-5.722 11.846-10.087 11.846-10.087 6.041 5.052 9.872 12.624 9.872 21.079z" fill="#499DE9" opacity=".3"/><path d="M127.748 38.54s-3.08 4.364-11.846 10.086c-7.048 4.62-17.788 10.106-33.564 14.924v-3.932c0-15.201 12.38-27.529 27.641-27.529a27.6 27.6 0 0 1 17.77 6.45z" fill="#499DE9" opacity=".3"/><g opacity=".2"><path d="M127.748 38.54a27.601 27.601 0 0 0-17.769-6.451c-.626 0-1.24.052-1.856.094A27.58 27.58 0 0 1 123.8 38.54c6.04 5.052 9.872 12.624 9.872 21.079v2.239c.395.184.775.372 1.184.553a73.85 73.85 0 0 0 2.765 1.14v-3.932c0-8.455-3.832-16.027-9.873-21.079z" opacity=".3" fill="#499DE9"/></g><g opacity=".4"><path d="M86.287 59.618c0-14.577 11.392-26.48 25.784-27.435a27.92 27.92 0 0 0-2.092-.094c-15.262 0-27.641 12.328-27.641 27.529v3.932c1.357-.415 2.665-.835 3.949-1.26v-2.672z" opacity=".3" fill="#499DE9"/></g><g opacity=".4"><path d="M80.739 100.715c1.618-.61 4.107-1.24 6.791-2.026 1.947-.57 3.97-1.254 5.828-2.062-.579-.67-.926-1.208-1.069-1.457-2.429 1.513-5.686 2.634-8.707 3.52-2.685.785-5.173 1.415-6.792 2.025-5.508 2.064-8.273 4.129-8.273 9.634v8.26h3.95v-8.26c0-5.505 2.763-7.57 8.272-9.634z" opacity=".3" fill="#499DE9"/></g><g opacity=".2"><path d="M139.383 100.715c-1.62-.61-4.107-1.24-6.793-2.026-1.946-.57-3.97-1.254-5.829-2.062.579-.67.928-1.208 1.07-1.457 2.428 1.513 5.686 2.634 8.708 3.52 2.685.785 5.173 1.415 6.792 2.025 5.507 2.064 8.272 4.129 8.272 9.634v8.26h-3.949v-8.26c0-5.505-2.765-7.57-8.271-9.634z" opacity=".3" fill="#499DE9"/></g><path d="M145.518 14.392h1.974v35.394h-1.974z" opacity=".3" fill="#499DE9"/><g opacity=".2"><path opacity=".3" d="M190.928 14.392h1.975v35.394h-1.975z" fill="#499DE9"/></g><g fill="#139FF0"><path d="M151.44 119.591H68.518a.985.985 0 0 1-.987-.983v-8.259c0-6.064 3.132-8.388 8.912-10.554 1.159-.437 2.69-.868 4.465-1.367.768-.215 1.573-.441 2.396-.681 2.423-.71 5.936-1.836 8.462-3.41 2.293-1.418 3.407-2.933 3.407-4.635 0-.543.441-.983.987-.983.545 0 .987.44.987.983 0 2.44-1.418 4.5-4.336 6.303-2.73 1.701-6.415 2.886-8.95 3.627-.83.244-1.642.473-2.416.69-1.73.486-3.224.906-4.304 1.313-5.174 1.938-7.635 3.737-7.635 8.714v7.276h80.949v-7.276c0-4.977-2.463-6.775-7.634-8.714-1.02-.376-2.42-.77-4.039-1.227-3.725-1.048-8.36-2.354-11.654-4.405-2.862-1.768-4.315-3.888-4.315-6.3 0-.544.442-.984.988-.984.545 0 .987.44.987.983 0 1.71 1.106 3.225 3.384 4.632 3.058 1.905 7.542 3.167 11.148 4.183 1.66.466 3.094.872 4.191 1.277 5.785 2.167 8.918 4.491 8.918 10.555v8.26a.984.984 0 0 1-.987.982z"/><path d="M109.98 94.029c-4.35 0-9.779-3.02-14.523-8.08-5.521-5.79-9.159-13.2-9.973-20.321a.984.984 0 0 1 .869-1.089.989.989 0 0 1 1.092.866c.767 6.706 4.212 13.701 9.45 19.195 4.316 4.605 9.329 7.462 13.084 7.462 3.756 0 8.768-2.857 13.08-7.454 5.243-5.502 8.688-12.497 9.455-19.203.062-.54.556-.914 1.092-.866.542.062.932.55.87 1.089-.816 7.12-4.453 14.53-9.98 20.328-4.739 5.052-10.167 8.073-14.517 8.073z"/><path d="M96.158 90.686a.985.985 0 0 1-.987-.984v-4.404c0-.544.442-.984.987-.984.546 0 .988.44.988.984v4.404a.985.985 0 0 1-.988.984zM123.8 90.686a.985.985 0 0 1-.988-.984v-4.404c0-.544.442-.984.988-.984.545 0 .987.44.987.984v4.404a.985.985 0 0 1-.987.984zM151.44 54.702a.986.986 0 0 1-.987-.983v-2.95h-4.935a.985.985 0 0 1-.987-.983V14.392c0-.544.441-.983.987-.983h47.385c.545 0 .987.44.987.983v35.394a.985.985 0 0 1-.987.983h-33.331l-7.69 3.83a.998.998 0 0 1-.441.103zm-4.935-5.9h4.936c.546 0 .987.44.987.984v2.343l6.469-3.222c.137-.067.289-.104.441-.104h32.577V15.375h-45.41v33.428z"/><path d="M159.813 37.005a.975.975 0 0 1-.46-.113l-1.99-1.04-1.989 1.04a.994.994 0 0 1-1.041-.075.982.982 0 0 1-.39-.964l.384-2.201-1.598-1.544a.98.98 0 0 1-.253-1.01.987.987 0 0 1 .797-.67l2.211-.319.995-2.012c.332-.672 1.438-.672 1.77 0l.995 2.012 2.211.319c.373.054.68.315.797.67a.98.98 0 0 1-.253 1.01l-1.598 1.544.383 2.2a.982.982 0 0 1-.971 1.153zm-2.45-3.246c.16 0 .315.039.46.114l.673.351-.13-.747a.981.981 0 0 1 .286-.875l.532-.515-.738-.106a.984.984 0 0 1-.743-.54l-.34-.685-.338.685a.984.984 0 0 1-.743.54l-.738.106.532.515a.98.98 0 0 1 .285.875l-.129.747.673-.351a.996.996 0 0 1 .459-.114zM171.66 37.005a.975.975 0 0 1-.46-.113l-1.99-1.04-1.99 1.04a.994.994 0 0 1-1.04-.075.982.982 0 0 1-.39-.964l.383-2.201-1.598-1.544a.98.98 0 0 1-.252-1.01.987.987 0 0 1 .796-.67l2.212-.319.994-2.012c.332-.672 1.439-.672 1.77 0l.995 2.012 2.212.319c.372.054.68.315.796.67a.98.98 0 0 1-.252 1.01l-1.599 1.544.384 2.2a.982.982 0 0 1-.972 1.153zm-2.45-3.246c.158 0 .314.039.46.114l.672.351-.129-.747a.981.981 0 0 1 .285-.875l.532-.515-.738-.106a.984.984 0 0 1-.742-.54l-.34-.685-.339.685a.984.984 0 0 1-.742.54l-.739.106.532.515a.981.981 0 0 1 .286.875l-.13.747.674-.351a.995.995 0 0 1 .458-.114zM183.505 37.005a.975.975 0 0 1-.459-.113l-1.99-1.04-1.99 1.04a.994.994 0 0 1-1.04-.075.982.982 0 0 1-.39-.964l.384-2.201-1.599-1.544a.98.98 0 0 1-.252-1.01.987.987 0 0 1 .796-.67l2.212-.319.994-2.012c.332-.672 1.439-.672 1.77 0l.995 2.012 2.212.319c.372.054.68.315.796.67a.98.98 0 0 1-.252 1.01l-1.599 1.544.384 2.2a.982.982 0 0 1-.972 1.153zm-2.449-3.246c.159 0 .315.039.46.114l.672.351-.129-.747a.981.981 0 0 1 .286-.875l.532-.515-.739-.106a.984.984 0 0 1-.742-.54l-.34-.685-.339.685a.984.984 0 0 1-.742.54l-.739.106.533.515a.981.981 0 0 1 .285.875l-.13.747.674-.351a.995.995 0 0 1 .458-.114zM137.62 60.601a.985.985 0 0 1-.987-.983c0-7.858-3.47-15.266-9.52-20.326a26.74 26.74 0 0 0-17.134-6.22c-14.697 0-26.654 11.908-26.654 26.546a.985.985 0 0 1-.987.983.985.985 0 0 1-.987-.983c0-15.721 12.843-28.512 28.628-28.512 6.72 0 13.256 2.373 18.405 6.68 6.497 5.435 10.224 13.392 10.224 21.832a.985.985 0 0 1-.988.983z"/><path d="M82.338 95.995a.985.985 0 0 1-.987-.983V59.618c0-.544.441-.983.987-.983s.987.44.987.983v35.394a.985.985 0 0 1-.987.983zM137.62 95.995a.985.985 0 0 1-.987-.983V59.618c0-.544.442-.983.987-.983.546 0 .988.44.988.983v35.394a.985.985 0 0 1-.988.983z"/><path d="M82.338 64.534a.98.98 0 0 1-.289-1.922c13.324-4.072 24.53-9.053 33.31-14.808 8.465-5.524 11.553-9.79 11.583-9.831a.992.992 0 0 1 1.375-.237.98.98 0 0 1 .24 1.368c-.13.184-3.291 4.585-12.114 10.344-8.934 5.857-20.312 10.919-33.816 15.041a.95.95 0 0 1-.29.045z"/><path d="M137.62 64.534a.977.977 0 0 1-.364-.07c-.96-.38-1.901-.756-2.802-1.156-13.359-5.899-19.117-13.777-19.355-14.11a.98.98 0 0 1 .228-1.37.99.99 0 0 1 1.377.226c.056.077 5.721 7.79 18.552 13.457a71.69 71.69 0 0 0 2.729 1.125.982.982 0 0 1-.365 1.898zM109.98 103.86c-13.173 0-17.762-6.833-18.548-8.203a.982.982 0 0 1 .367-1.342.99.99 0 0 1 1.347.367c.423.737 4.495 7.212 16.833 7.212 12.313 0 16.39-6.475 16.814-7.212a.986.986 0 0 1 1.348-.365.98.98 0 0 1 .366 1.34c-.787 1.372-5.38 8.204-18.528 8.204z"/></g></g></g></svg>
