<svg height="96" width="96" xmlns="http://www.w3.org/2000/svg"><g fill="#139ff0"><g fill-opacity=".3"><path d="M41.807 44.25l-9.174 13.498h2.975l7.686-11.308zM56.68 36.753L43.079 57.748h2.974l12.116-18.7zM32.138 32.254c0-1.396.95-2.559 2.231-2.893a2.934 2.934 0 0 0-.744-.106c-1.642 0-2.974 1.343-2.974 2.999s1.332 3 2.974 3c.259 0 .505-.045.744-.107a2.988 2.988 0 0 1-2.23-2.893z"/><path d="M35.113 32.254c0 1.396-.95 2.558-2.231 2.893.239.062.485.106.744.106 1.643 0 2.975-1.343 2.975-3s-1.332-2.998-2.975-2.998c-.259 0-.505.044-.744.106a2.988 2.988 0 0 1 2.231 2.893zM73.787 17.258h1.487v74.981h-1.487zM21.726 17.258h1.487v74.981h-1.487zM76.761 14.258h1.488v80.98H76.76zM18.751 14.258h1.488v80.98H18.75zM64.862 12.759h1.487v5.998h-1.487zM30.65 12.759h1.488v5.998h-1.487zM35.113 12.759h1.488v5.998h-1.488zM60.4 12.759h1.487v5.998h-1.488zM27.676 83.241h41.648v1.5H27.676z"/></g><path d="M33.626 36.003c-2.05 0-3.719-1.682-3.719-3.75s1.668-3.748 3.719-3.748c2.05 0 3.718 1.682 3.718 3.749s-1.668 3.749-3.718 3.749zm0-5.999a2.243 2.243 0 0 0-2.231 2.25c0 1.24 1 2.25 2.23 2.25s2.232-1.01 2.232-2.25-1.001-2.25-2.231-2.25zM69.324 86.99H27.676a.746.746 0 0 1-.744-.75v-2.999c0-.414.333-.75.744-.75h41.648c.411 0 .744.336.744.75v3c0 .414-.333.75-.744.75zm-40.905-1.5H68.58v-1.499H28.42zM33.625 56.998a.735.735 0 0 1-.42-.132.754.754 0 0 1-.192-1.043l8.18-11.997a.74.74 0 0 1 1.035-.193.754.754 0 0 1 .192 1.042l-8.181 11.997a.743.743 0 0 1-.614.326z"/><path d="M45.527 50.455a.743.743 0 0 1-.613-.326l-3.72-5.453a.754.754 0 0 1 .191-1.043.74.74 0 0 1 1.035.193l3.72 5.454a.754.754 0 0 1-.192 1.043.736.736 0 0 1-.42.132zM44.037 56.998a.751.751 0 0 1-.622-1.16L56.06 36.343a.739.739 0 0 1 1.028-.218.75.75 0 0 1 .215 1.038L44.66 56.658a.742.742 0 0 1-.623.34z"/><path d="M69.324 56.998a.742.742 0 0 1-.621-.34L56.059 37.163a.75.75 0 0 1 .215-1.038.737.737 0 0 1 1.029.218l12.643 19.495a.75.75 0 0 1-.622 1.16z"/><path d="M73.787 58.497H23.213c-.41 0-.743-.335-.743-.75s.332-.75.743-.75h50.574c.41 0 .743.336.743.75s-.332.75-.743.75zM69.324 68.995H27.676c-.411 0-.744-.336-.744-.75s.333-.75.744-.75h41.648c.411 0 .744.336.744.75s-.333.75-.744.75zM69.324 71.994H27.676c-.411 0-.744-.335-.744-.75s.333-.75.744-.75h41.648c.411 0 .744.336.744.75s-.333.75-.744.75zM58.912 74.993H38.088c-.411 0-.744-.335-.744-.75s.333-.75.744-.75h20.824c.411 0 .744.336.744.75s-.333.75-.744.75z"/><path d="M78.249 95.988H18.75a.746.746 0 0 1-.744-.75v-80.98c0-.414.333-.75.744-.75s.744.336.744.75v80.23h58.01v-80.23c0-.414.333-.75.744-.75s.744.336.744.75v80.98c0 .415-.333.75-.744.75z"/><path d="M75.274 92.989H21.726a.746.746 0 0 1-.744-.75V17.258c0-.415.333-.75.744-.75s.744.335.744.75v74.231h52.06V17.258c0-.415.333-.75.744-.75s.744.335.744.75v74.981c0 .414-.333.75-.744.75z"/><path d="M36.6 19.507h-5.95a.746.746 0 0 1-.743-.75V12.76c0-.415.333-.75.744-.75h5.95c.41 0 .743.335.743.75v5.998c0 .415-.332.75-.743.75zm-5.206-1.5h4.463v-4.499h-4.463zM66.35 19.507H60.4a.746.746 0 0 1-.744-.75V12.76c0-.415.332-.75.744-.75h5.95c.41 0 .743.335.743.75v5.998c0 .415-.332.75-.744.75zm-5.207-1.5h4.462v-4.499h-4.462z"/><path d="M29.163 18.007h-7.437c-.411 0-.744-.335-.744-.75s.333-.75.744-.75h7.437c.411 0 .744.336.744.75s-.333.75-.744.75zM75.274 18.007h-7.437c-.411 0-.744-.335-.744-.75s.333-.75.744-.75h7.437c.411 0 .744.336.744.75s-.333.75-.744.75zM58.912 18.007H38.088c-.411 0-.744-.335-.744-.75s.333-.75.744-.75h20.824c.411 0 .744.336.744.75s-.333.75-.744.75zM29.163 15.008H18.751c-.41 0-.744-.335-.744-.75s.333-.75.744-.75h10.412c.411 0 .744.336.744.75s-.333.75-.744.75zM58.912 15.008H38.088c-.411 0-.744-.335-.744-.75s.333-.75.744-.75h20.824c.411 0 .744.336.744.75s-.333.75-.744.75zM78.249 15.008H67.837c-.411 0-.744-.335-.744-.75s.333-.75.744-.75h10.412c.411 0 .744.336.744.75s-.333.75-.744.75zM33.626 13.133a.746.746 0 0 1-.744-.75V.763c0-.415.333-.75.744-.75s.743.335.743.75v11.622c0 .414-.332.75-.743.75zM63.374 13.508a.746.746 0 0 1-.743-.75V.763c0-.415.332-.75.743-.75.412 0 .744.335.744.75v11.997c0 .414-.332.75-.744.75z"/></g></svg>
