<svg width="106" height="83" viewBox="0 0 106 83" xmlns="http://www.w3.org/2000/svg"><g fill="none" fill-rule="evenodd"><path fill="#AEF9FF" d="M51.955 58.36l-.097-.1V26.32l.097-.1h53.09l.097.1v31.94l-.097.1z"/><path d="M64.526 49.27c0 1.21-.942 2.18-2.105 2.18-1.162 0-2.105-.97-2.105-2.18 0-1.2.943-2.18 2.105-2.18 1.163 0 2.105.98 2.105 2.18M76.159 49.27c0 1.21-.942 2.18-2.105 2.18s-2.105-.97-2.105-2.18c0-1.2.942-2.18 2.105-2.18s2.105.98 2.105 2.18M87.791 49.27c0 1.21-.942 2.18-2.105 2.18-1.162 0-2.104-.97-2.104-2.18 0-1.2.942-2.18 2.104-2.18 1.163 0 2.105.98 2.105 2.18M62.494 19.26H18.501c-1.105 0-2-.9-2-2 0-1.11.895-2 2-2h43.993c1.104 0 2 .89 2 2 0 1.1-.896 2-2 2M35.892 35.49H18.501c-1.105 0-2-.89-2-2 0-1.1.895-2 2-2h17.391c1.105 0 2 .9 2 2 0 1.11-.895 2-2 2" fill="#007FED"/><path d="M4 47.31h7.477c1.097 0 1.989.88 2 1.98l.149 14.14 15.661-15.54c.374-.37.881-.58 1.408-.58h12.693V33.27c0-1.57 1.275-2.84 2.84-2.84h30.7V4H4v43.31zm7.676 22.87c-.256 0-.514-.05-.76-.15-.743-.31-1.232-1.03-1.24-1.83l-.178-16.89H3.883C1.742 51.31 0 49.57 0 47.43V3.88C0 1.74 1.742 0 3.883 0h73.162c2.14 0 3.883 1.74 3.883 3.88v28.55c0 1.1-.896 2-2 2h-31.54v14.88c0 1.11-.895 2-2 2h-13.87L13.084 69.6c-.382.38-.891.58-1.408.58z" fill="#007FED"/><path d="M95.779 82.8c-.488 0-.971-.18-1.346-.52L80.641 69.74H46.228c-1.565 0-2.84-1.28-2.84-2.84V49.31c0-1.1.896-2 2-2 1.105 0 2 .9 2 2v16.43h34.027c.498 0 .977.18 1.346.52l11.052 10.05.065-8.59c.009-1.1.901-1.98 2-1.98h4.919V34.43H78.928c-1.105 0-2-.9-2-2 0-1.11.895-2 2-2h23.029c1.565 0 2.84 1.27 2.84 2.84V66.9c0 1.56-1.275 2.84-2.84 2.84h-4.094l-.084 11.08c-.006.79-.475 1.5-1.198 1.82-.258.11-.53.16-.802.16" fill="#007FED"/></g></svg>
